<svg width="256" height="86" viewBox="0 0 256 86" fill="none" xmlns="http://www.w3.org/2000/svg">
<g filter="url(#filter0_ddi_90019_88)">
<path d="M14.376 53V6.344H33.704C38.2693 6.344 42.1307 7.32533 45.288 9.288C48.488 11.208 50.8987 13.9387 52.52 17.48C54.184 20.9787 55.016 25.0533 55.016 29.704C55.016 34.3547 54.184 38.4293 52.52 41.928C50.856 45.4267 48.4453 48.1573 45.288 50.12C42.1307 52.04 38.2693 53 33.704 53H14.376ZM22.824 45.704H32.424C35.1547 45.704 37.5653 45.1707 39.656 44.104C41.7467 42.9947 43.3893 41.2667 44.584 38.92C45.7787 36.5307 46.376 33.3947 46.376 29.512C46.376 25.7147 45.7787 22.6427 44.584 20.296C43.432 17.9493 41.7893 16.2427 39.656 15.176C37.5653 14.1093 35.1547 13.576 32.424 13.576H22.824V45.704ZM74.182 53.576C70.726 53.576 67.782 52.872 65.35 51.464C62.918 50.0133 61.062 47.9867 59.782 45.384C58.5447 42.7387 57.926 39.6667 57.926 36.168C57.926 32.5413 58.566 29.4053 59.846 26.76C61.126 24.072 62.9607 22.0027 65.35 20.552C67.7393 19.0587 70.598 18.312 73.926 18.312C77.638 18.312 80.6887 19.144 83.078 20.808C85.51 22.472 87.2593 24.7547 88.326 27.656C89.3927 30.5573 89.7767 33.8853 89.478 37.64H65.734C65.734 40.9253 66.502 43.4 68.038 45.064C69.574 46.6853 71.622 47.496 74.182 47.496C76.1873 47.496 77.8513 47.0267 79.174 46.088C80.4967 45.1493 81.35 43.912 81.734 42.376H89.286C88.9873 44.68 88.1553 46.6853 86.79 48.392C85.4247 50.056 83.654 51.336 81.478 52.232C79.302 53.128 76.87 53.576 74.182 53.576ZM73.926 24.392C71.5793 24.392 69.6807 25.096 68.23 26.504C66.822 27.912 66.0113 29.896 65.798 32.456H81.606C81.5207 29.7253 80.7527 27.6987 79.302 26.376C77.894 25.0533 76.102 24.392 73.926 24.392ZM106.329 53.64C101.806 53.64 98.2223 52.5947 95.577 50.504C92.9743 48.4133 91.6943 45.6613 91.737 42.248H99.609C99.6517 44.2107 100.292 45.64 101.529 46.536C102.809 47.432 104.494 47.88 106.585 47.88C108.59 47.88 110.105 47.5173 111.129 46.792C112.196 46.024 112.729 44.9787 112.729 43.656C112.729 42.0773 112.174 41.0107 111.065 40.456C109.998 39.8587 108.142 39.368 105.497 38.984C101.145 38.344 97.9023 37.32 95.769 35.912C93.6783 34.4613 92.633 32.1147 92.633 28.872C92.633 26.7387 93.209 24.8827 94.361 23.304C95.513 21.7253 97.1343 20.5093 99.225 19.656C101.316 18.76 103.769 18.312 106.585 18.312C110.681 18.312 113.945 19.2933 116.377 21.256C118.852 23.176 120.132 25.7787 120.217 29.064H112.345C112.345 27.272 111.79 25.992 110.681 25.224C109.614 24.4133 108.185 24.008 106.393 24.008C104.558 24.008 103.129 24.3707 102.105 25.096C101.124 25.8213 100.633 26.8453 100.633 28.168C100.633 29.6187 101.252 30.6427 102.489 31.24C103.726 31.8373 105.774 32.328 108.633 32.712C112.686 33.2667 115.737 34.2693 117.785 35.72C119.876 37.1707 120.921 39.5813 120.921 42.952C120.921 46.3653 119.577 49.0107 116.889 50.888C114.244 52.7227 110.724 53.64 106.329 53.64ZM125.413 14.152V6.344H133.413V14.152H125.413ZM125.413 53V18.952H133.413V53H125.413ZM153.926 64.328C149.659 64.328 146.246 63.4107 143.686 61.576C141.169 59.784 139.761 57.352 139.462 54.28H147.142C147.398 55.6027 148.145 56.648 149.382 57.416C150.619 58.184 152.198 58.568 154.118 58.568C157.019 58.568 159.153 57.928 160.518 56.648C161.926 55.4107 162.63 53.4267 162.63 50.696V44.424H162.182C161.414 46.3867 160.07 47.9867 158.15 49.224C156.273 50.4187 154.033 51.016 151.43 51.016C147.334 51.016 144.049 49.608 141.574 46.792C139.142 43.976 137.926 39.9227 137.926 34.632C137.926 29.3413 139.163 25.3093 141.638 22.536C144.155 19.72 147.462 18.312 151.558 18.312C154.118 18.312 156.337 18.9093 158.214 20.104C160.091 21.2987 161.414 22.856 162.182 24.776H162.63L162.886 18.952H170.63V49.416C170.63 53.0853 169.926 56.008 168.518 58.184C167.153 60.36 165.211 61.9173 162.694 62.856C160.177 63.8373 157.254 64.328 153.926 64.328ZM154.31 44.808C156.102 44.808 157.595 44.424 158.79 43.656C160.027 42.8453 160.966 41.8213 161.606 40.584C162.246 39.3467 162.587 38.0453 162.63 36.68V32.584C162.587 31.2187 162.246 29.9387 161.606 28.744C160.966 27.5067 160.049 26.504 158.854 25.736C157.659 24.9253 156.166 24.52 154.374 24.52C151.857 24.52 149.83 25.3947 148.294 27.144C146.801 28.8507 146.054 31.3467 146.054 34.632C146.054 38.0027 146.801 40.5413 148.294 42.248C149.83 43.9547 151.835 44.808 154.31 44.808ZM176.913 53V18.952H184.593L184.913 25.416H185.297C186.278 23.0693 187.772 21.2987 189.777 20.104C191.782 18.9093 194.022 18.312 196.497 18.312C198.801 18.312 200.849 18.8027 202.641 19.784C204.476 20.7227 205.926 22.2373 206.993 24.328C208.06 26.376 208.593 29.128 208.593 32.584V53H200.593V34.312C200.593 31.112 200.017 28.744 198.865 27.208C197.713 25.672 195.9 24.904 193.425 24.904C191.633 24.904 190.097 25.3307 188.817 26.184C187.58 27.0373 186.62 28.168 185.937 29.576C185.254 30.984 184.913 32.5413 184.913 34.248V53H176.913ZM227.267 53.64C222.744 53.64 219.16 52.5947 216.515 50.504C213.912 48.4133 212.632 45.6613 212.674 42.248H220.547C220.589 44.2107 221.229 45.64 222.467 46.536C223.747 47.432 225.432 47.88 227.523 47.88C229.528 47.88 231.043 47.5173 232.067 46.792C233.133 46.024 233.667 44.9787 233.667 43.656C233.667 42.0773 233.112 41.0107 232.003 40.456C230.936 39.8587 229.08 39.368 226.435 38.984C222.083 38.344 218.84 37.32 216.707 35.912C214.616 34.4613 213.571 32.1147 213.571 28.872C213.571 26.7387 214.147 24.8827 215.299 23.304C216.451 21.7253 218.072 20.5093 220.163 19.656C222.253 18.76 224.707 18.312 227.523 18.312C231.619 18.312 234.883 19.2933 237.315 21.256C239.789 23.176 241.069 25.7787 241.155 29.064H233.283C233.283 27.272 232.728 25.992 231.619 25.224C230.552 24.4133 229.123 24.008 227.331 24.008C225.496 24.008 224.067 24.3707 223.043 25.096C222.061 25.8213 221.571 26.8453 221.571 28.168C221.571 29.6187 222.189 30.6427 223.427 31.24C224.664 31.8373 226.712 32.328 229.571 32.712C233.624 33.2667 236.675 34.2693 238.723 35.72C240.813 37.1707 241.859 39.5813 241.859 42.952C241.859 46.3653 240.515 49.0107 237.827 50.888C235.181 52.7227 231.661 53.64 227.267 53.64Z" fill="url(#paint0_linear_90019_88)"/>
</g>
<defs>
<filter id="filter0_ddi_90019_88" x="0.979856" y="0.602774" width="254.275" height="84.7762" filterUnits="userSpaceOnUse" color-interpolation-filters="sRGB">
<feFlood flood-opacity="0" result="BackgroundImageFix"/>
<feColorMatrix in="SourceAlpha" type="matrix" values="0 0 0 0 0 0 0 0 0 0 0 0 0 0 0 0 0 0 127 0" result="hardAlpha"/>
<feMorphology radius="1" operator="dilate" in="SourceAlpha" result="effect1_dropShadow_90019_88"/>
<feOffset/>
<feComposite in2="hardAlpha" operator="out"/>
<feColorMatrix type="matrix" values="0 0 0 0 0.784314 0 0 0 0 0.858824 0 0 0 0 0.917647 0 0 0 1 0"/>
<feBlend mode="normal" in2="BackgroundImageFix" result="effect1_dropShadow_90019_88"/>
<feColorMatrix in="SourceAlpha" type="matrix" values="0 0 0 0 0 0 0 0 0 0 0 0 0 0 0 0 0 0 127 0" result="hardAlpha"/>
<feMorphology radius="5.74118" operator="erode" in="SourceAlpha" result="effect2_dropShadow_90019_88"/>
<feOffset dy="7.6549"/>
<feGaussianBlur stdDeviation="9.56865"/>
<feComposite in2="hardAlpha" operator="out"/>
<feColorMatrix type="matrix" values="0 0 0 0 0.788235 0 0 0 0 0.858824 0 0 0 0 0.917647 0 0 0 0.32 0"/>
<feBlend mode="normal" in2="effect1_dropShadow_90019_88" result="effect2_dropShadow_90019_88"/>
<feBlend mode="normal" in="SourceGraphic" in2="effect2_dropShadow_90019_88" result="shape"/>
<feColorMatrix in="SourceAlpha" type="matrix" values="0 0 0 0 0 0 0 0 0 0 0 0 0 0 0 0 0 0 127 0" result="hardAlpha"/>
<feOffset dy="3.82745"/>
<feGaussianBlur stdDeviation="4"/>
<feComposite in2="hardAlpha" operator="arithmetic" k2="-1" k3="1"/>
<feColorMatrix type="matrix" values="0 0 0 0 0.0470588 0 0 0 0 0.286275 0 0 0 0 0.52549 0 0 0 0.04 0"/>
<feBlend mode="normal" in2="shape" result="effect3_innerShadow_90019_88"/>
</filter>
<linearGradient id="paint0_linear_90019_88" x1="127" y1="-4" x2="127" y2="64" gradientUnits="userSpaceOnUse">
<stop stop-color="#EBF3FA"/>
<stop offset="1" stop-color="#DFEDFA"/>
</linearGradient>
</defs>
</svg>
